<svg width="20" height="21" viewBox="0 0 20 21" fill="none" xmlns="http://www.w3.org/2000/svg">
<path fill-rule="evenodd" clip-rule="evenodd" d="M19.7197 10.5875C19.7197 15.8895 15.4216 20.1875 10.1197 20.1875C4.81772 20.1875 0.519653 15.8895 0.519653 10.5875C0.519653 5.28562 4.81772 0.987549 10.1197 0.987549C15.4216 0.987549 19.7197 5.28562 19.7197 10.5875ZM12.5197 6.98755C12.5197 8.31303 11.4451 9.38755 10.1197 9.38755C8.79417 9.38755 7.71965 8.31303 7.71965 6.98755C7.71965 5.66207 8.79417 4.58755 10.1197 4.58755C11.4451 4.58755 12.5197 5.66207 12.5197 6.98755ZM10.1196 11.7875C7.69852 11.7875 5.61239 13.2215 4.66414 15.2864C5.98449 16.818 7.93883 17.7875 10.1196 17.7875C12.3004 17.7875 14.2547 16.818 15.575 15.2865C14.6268 13.2215 12.5407 11.7875 10.1196 11.7875Z" fill="#87868A"/>
</svg>
